# xmcd
#
# Track frame offsets:
#	150
#	3713
#	9190
#	14644
#	18674
#	26077
#	32189
#	42818
#	47733
#	52789
#	60937
#	66664
#	75089
#	81556
#	90657
#	99871
#	107003
#	116019
#	123808
#	127133
#	133498
#	145549
#	152495
#	163552
#	172307
#	177927
#	188106
#	196456
#	202312
#	207864
#	212405
#
# Disc length: 2924 seconds
#
# Revision: 0
# Processed by: cddbd v1.5.2PL0 Copyright (c) Steve Scherf et al.
# Submitted via: dBpowerAMP V4.0
#
DISCID=ae0b6a1f
DTITLE=Verskeie Kunstenaars - 101 Grootste Love Songs
DYEAR=1900
DGENRE=
TTITLE0=Lekker Lekker
TTITLE1=Dis Net Ek En Jy
TTITLE2=Hokaai Stoppie Lorrie
TTITLE3=Hou My Vas Stywer Vas
TTITLE4=Charlie
TTITLE5=So You Win Again
TTITLE6=Man On The Moon
TTITLE7=Some Broken Hearts Never Mend
TTITLE8=Ashes Of Love
TTITLE9=Heaven Is My Woman's Love
TTITLE10=Waar Lê Jy Vanaand
TTITLE11=Lisa Se Klavier
TTITLE12=Tussen Treine
TTITLE13=My Duifie My Duifie
TTITLE14=It Must Have Been Love
TTITLE15=Sleeping Child
TTITLE16=To Love Somebody
TTITLE17=Don't Forget To Remember
TTITLE18=Massachusetts
TTITLE19=Saved By The Bell
TTITLE20=First Of May
TTITLE21=Darlin'
TTITLE22=No Hollywood Movie
TTITLE23=Don't Fly Too High Little Bird
TTITLE24=Klein Karoo
TTITLE25=Die Seewind Bring Heimwee
TTITLE26=Wie Sal Kom Nagsê
TTITLE27=Don't Be Cruel
TTITLE28=All My Loving
TTITLE29=Lucky Lips
TTITLE30=Oh Boy
EXTD=
EXTT0=
EXTT1=
EXTT2=
EXTT3=
EXTT4=
EXTT5=
EXTT6=
EXTT7=
EXTT8=
EXTT9=
EXTT10=
EXTT11=
EXTT12=
EXTT13=
EXTT14=
EXTT15=
EXTT16=
EXTT17=
EXTT18=
EXTT19=
EXTT20=
EXTT21=
EXTT22=
EXTT23=
EXTT24=
EXTT25=
EXTT26=
EXTT27=
EXTT28=
EXTT29=
EXTT30=
PLAYORDER=
